<svg xmlns="http://www.w3.org/2000/svg" viewBox="0 0 512 512">
  <rect width="512" height="512" rx="115" fill="#3b82f6"/>
  <path d="M256 426c-66.3 0-120-53.7-120-120 0-34.3 17.1-66.9 51.4-94.3 60-47.1 68.6-111.4 68.6-111.4s8.6 64.3 68.6 111.4c34.3 27.4 51.4 60 51.4 94.3 0 66.3-53.7 120-120 120z" fill="#ffffff"/>
  <path d="M256 426c-66.3 0-120-53.7-120-120 0-34.3 17.1-66.9 51.4-94.3 60-47.1 68.6-111.4 68.6-111.4s8.6 64.3 68.6 111.4c34.3 27.4 51.4 60 51.4 94.3 0 66.3-53.7 120-120 120z" fill="url(#grad)" opacity="0.2"/>
  <defs>
    <linearGradient id="grad" x1="0%" y1="0%" x2="0%" y2="100%">
      <stop offset="0%" stop-color="#ffffff" stop-opacity="1" />
      <stop offset="100%" stop-color="#000000" stop-opacity="0" />
    </linearGradient>
  </defs>
</svg>
